<svg id="Layer_1" data-name="Layer 1" xmlns="http://www.w3.org/2000/svg" viewBox="0 0 347.36 48.71"><title>Artboard 22</title><path d="M3,2l331,3.79L344.7,42.9,20.75,46.7,3,2M0,0,19.4,48.71l328-3.84-11.92-41L0,0Z"/><path d="M57.29,26.32l-1.86-5.7a.83.83,0,0,0,0-.15L51.67,9a1.48,1.48,0,0,0-1.42-1,1.44,1.44,0,0,0-1.39,1L45.31,19.94H34.1L30.55,9a1.45,1.45,0,0,0-1.39-1h0a1.48,1.48,0,0,0-1.41,1L24,20.49s0,0,0,0l-1.89,5.81a2.13,2.13,0,0,0,.77,2.37L39.21,40.56a.83.83,0,0,0,1,0L56.52,28.7a2.11,2.11,0,0,0,.77-2.38m-24.4-4.71,4.55,14-10.92-14M42,35.62l4.36-13.43.19-.58H52.9L43,34.27m7.25-24.18,3.19,9.85h-6.4m-2.3,1.67-3.17,9.75L39.7,37.17,34.65,21.61M29.14,10.09l3.21,9.85H26m-2.08,7.41a.46.46,0,0,1-.17-.51l1.41-4.31L35.4,35.72m20.14-8.37L44,35.72l0,0L54.3,22.53l1.4,4.31a.44.44,0,0,1-.16.5"/><path d="M81.13,19.79v10.9a5.32,5.32,0,0,1-1.34,3.94,5.45,5.45,0,0,1-4,1.34,8.3,8.3,0,0,1-5.16-1.59l.65-1.44a9.93,9.93,0,0,0,2.21,1.11,7.56,7.56,0,0,0,2.3.33,3.39,3.39,0,0,0,2.55-.9,3.67,3.67,0,0,0,.86-2.63V28.79a3.63,3.63,0,0,1-1.55,1.73,4.82,4.82,0,0,1-2.46.6,5.14,5.14,0,0,1-2.72-.72,4.89,4.89,0,0,1-1.85-2A6.74,6.74,0,0,1,70,25.31a6.74,6.74,0,0,1,.66-3,4.89,4.89,0,0,1,1.85-2,5.14,5.14,0,0,1,2.72-.72,4.76,4.76,0,0,1,2.43.6,3.81,3.81,0,0,1,1.56,1.71v-2Zm-2.9,8.6a4.56,4.56,0,0,0,1-3.08,4.57,4.57,0,0,0-1-3.06,3.31,3.31,0,0,0-2.65-1.12,3.38,3.38,0,0,0-2.68,1.12,4.48,4.48,0,0,0-1,3.06,4.51,4.51,0,0,0,1,3.08,3.35,3.35,0,0,0,2.68,1.12A3.28,3.28,0,0,0,78.23,28.39Z"/><path d="M84.54,14.73h2.35v2.18H84.54Zm.19,16.75V19.79h2V31.48Z"/><path d="M96.49,30l-.09,1.54a7.47,7.47,0,0,1-1.2.1A4.21,4.21,0,0,1,92,30.54,4.19,4.19,0,0,1,91,27.47V21.33H88.67V19.79H91V16.24h1.94v3.55H96.2v1.54H92.89v6q0,2.76,2.55,2.76A7.42,7.42,0,0,0,96.49,30Z"/><path d="M98.46,31.48V14.56h1.94V31.48Z"/><path d="M112.1,20.64a4.85,4.85,0,0,1,1.1,3.47v7.37h-1.9v-2a3.42,3.42,0,0,1-1.39,1.59,4.1,4.1,0,0,1-2.16.57,4.8,4.8,0,0,1-2.08-.46,3.73,3.73,0,0,1-1.5-1.27,3.11,3.11,0,0,1-.55-1.8,2.89,2.89,0,0,1,.67-2.05A4.12,4.12,0,0,1,106.5,25a21.54,21.54,0,0,1,4.27-.32h.53v-.8a3.1,3.1,0,0,0-.6-2.12,2.51,2.51,0,0,0-1.94-.66,7.5,7.5,0,0,0-4,1.25l-.65-1.42a7.61,7.61,0,0,1,2.2-1,8.18,8.18,0,0,1,2.48-.4A4.38,4.38,0,0,1,112.1,20.64Zm-1.72,8.5a3.53,3.53,0,0,0,.92-2.51v-.7h-.43a21.56,21.56,0,0,0-3.22.18,3.13,3.13,0,0,0-1.57.6,1.6,1.6,0,0,0-.47,1.24,2,2,0,0,0,.69,1.55,2.44,2.44,0,0,0,1.71.61A3.13,3.13,0,0,0,110.38,29.14Z"/><path d="M125.34,20.25a4.9,4.9,0,0,1,1.82,2.11,7.21,7.21,0,0,1,.65,3.17,7.35,7.35,0,0,1-.65,3.2,5.07,5.07,0,0,1-1.82,2.15,4.86,4.86,0,0,1-2.71.77,4.64,4.64,0,0,1-2.39-.6,3.84,3.84,0,0,1-1.55-1.71v2.14h-1.94V14.56h1.94v7.25a3.84,3.84,0,0,1,1.55-1.71,4.64,4.64,0,0,1,2.39-.6A4.93,4.93,0,0,1,125.34,20.25Zm-.46,8.6a5.21,5.21,0,0,0,.94-3.32,5,5,0,0,0-.94-3.24,3.2,3.2,0,0,0-2.64-1.16,3.16,3.16,0,0,0-2.62,1.16,5.09,5.09,0,0,0-.93,3.28,5.15,5.15,0,0,0,.93,3.3,3.52,3.52,0,0,0,5.26,0Z"/><path d="M130,29h2.45v2.45H130Z"/><path d="M137.34,30.9a4.92,4.92,0,0,1-2-2.1,7,7,0,0,1-.68-3.18,7,7,0,0,1,.71-3.2,5.17,5.17,0,0,1,2-2.15,5.78,5.78,0,0,1,3-.77,6.6,6.6,0,0,1,2.31.42A4.9,4.9,0,0,1,144.54,21l-.65,1.44a5.28,5.28,0,0,0-3.36-1.35,3.53,3.53,0,0,0-2.81,1.18,4.94,4.94,0,0,0-1,3.31,4.83,4.83,0,0,0,1,3.27A3.57,3.57,0,0,0,140.53,30a5.28,5.28,0,0,0,3.36-1.35l.65,1.44a5.31,5.31,0,0,1-1.87,1.11,6.85,6.85,0,0,1-2.33.41A5.81,5.81,0,0,1,137.34,30.9Z"/><path d="M148.82,30.9a4.93,4.93,0,0,1-1.94-2.12,7.09,7.09,0,0,1-.68-3.21,7.07,7.07,0,0,1,.68-3.2,4.93,4.93,0,0,1,1.94-2.12,5.62,5.62,0,0,1,2.92-.75,5.68,5.68,0,0,1,2.93.75,4.83,4.83,0,0,1,2,2.12,7.08,7.08,0,0,1,.69,3.2,7.09,7.09,0,0,1-.69,3.21,4.83,4.83,0,0,1-2,2.12,5.68,5.68,0,0,1-2.93.75A5.62,5.62,0,0,1,148.82,30.9Zm5.57-2a5.16,5.16,0,0,0,.93-3.33,5.19,5.19,0,0,0-.94-3.3,3.58,3.58,0,0,0-5.28,0,5.19,5.19,0,0,0-.94,3.3,5.19,5.19,0,0,0,.93,3.32,3.64,3.64,0,0,0,5.3,0Z"/><path d="M177.11,24.13v7.35h-2V24.23a3.87,3.87,0,0,0-.56-2.35,2.12,2.12,0,0,0-1.81-.75,2.87,2.87,0,0,0-2.31,1,4,4,0,0,0-.84,2.69v6.67H167.7V24.23a3.79,3.79,0,0,0-.58-2.36,2.17,2.17,0,0,0-1.82-.74,2.85,2.85,0,0,0-2.3,1,4,4,0,0,0-.84,2.69v6.67h-1.95V19.79h1.92v1.85a3.77,3.77,0,0,1,1.47-1.59,4.23,4.23,0,0,1,2.16-.55,3.44,3.44,0,0,1,3.57,2.31,3.84,3.84,0,0,1,1.54-1.7,4.6,4.6,0,0,1,2.35-.61C175.81,19.5,177.11,21.05,177.11,24.13Z"/><path d="M180,33l-1.61-.53,6.12-19.1,1.61.52Z"/><path d="M197.77,31.48h-2.52l-5.95-5.59v5.59h-1.94V14.56h1.94V25.09l5.45-5.28h2.47l-5.81,5.6Z"/><path d="M201.07,30.9a4.87,4.87,0,0,1-1.94-2.12,7.09,7.09,0,0,1-.69-3.21,7.08,7.08,0,0,1,.69-3.2,4.87,4.87,0,0,1,1.94-2.12A5.59,5.59,0,0,1,204,19.5a5.68,5.68,0,0,1,2.93.75,4.89,4.89,0,0,1,2,2.12,7.08,7.08,0,0,1,.69,3.2,7.09,7.09,0,0,1-.69,3.21,4.89,4.89,0,0,1-2,2.12,5.68,5.68,0,0,1-2.93.75A5.59,5.59,0,0,1,201.07,30.9Zm5.57-2a5.16,5.16,0,0,0,.92-3.33,5.18,5.18,0,0,0-.93-3.3,3.58,3.58,0,0,0-5.28,0,5.13,5.13,0,0,0-.94,3.3,5.19,5.19,0,0,0,.93,3.32,3.64,3.64,0,0,0,5.3,0Z"/><path d="M211.74,30.13l.65-1.44a6.08,6.08,0,0,0,1.9,1.07,6.83,6.83,0,0,0,2.2.33,3.58,3.58,0,0,0,2-.45,1.42,1.42,0,0,0,.69-1.28,1.44,1.44,0,0,0-.46-1.11,3.46,3.46,0,0,0-1.51-.64l-2-.46A4.48,4.48,0,0,1,212.94,25a2.79,2.79,0,0,1-.79-2,3.06,3.06,0,0,1,1.22-2.52,5.16,5.16,0,0,1,3.26-1,6.67,6.67,0,0,1,2.33.4A4.75,4.75,0,0,1,220.81,21l-.65,1.41a5.31,5.31,0,0,0-3.53-1.36,3.34,3.34,0,0,0-1.9.46,1.64,1.64,0,0,0-.27,2.43,2.78,2.78,0,0,0,1.36.63l2,.48a5.11,5.11,0,0,1,2.43,1.17,2.74,2.74,0,0,1,.79,2,2.86,2.86,0,0,1-1.24,2.44,5.55,5.55,0,0,1-3.37.92A6.84,6.84,0,0,1,211.74,30.13Z"/><path d="M225.92,30.9A4.84,4.84,0,0,1,224,28.8a6.9,6.9,0,0,1-.69-3.18,7,7,0,0,1,.71-3.2,5.24,5.24,0,0,1,2-2.15,5.8,5.8,0,0,1,3-.77,6.54,6.54,0,0,1,2.3.42A4.9,4.9,0,0,1,233.12,21l-.65,1.44a5.28,5.28,0,0,0-3.36-1.35,3.51,3.51,0,0,0-2.8,1.18,4.89,4.89,0,0,0-1,3.31,4.78,4.78,0,0,0,1,3.27,3.55,3.55,0,0,0,2.8,1.15,5.28,5.28,0,0,0,3.36-1.35l.65,1.44a5.22,5.22,0,0,1-1.87,1.11,6.85,6.85,0,0,1-2.33.41A5.81,5.81,0,0,1,225.92,30.9Z"/><path d="M243.55,20.64a4.85,4.85,0,0,1,1.09,3.47v7.37h-1.89v-2a3.44,3.44,0,0,1-1.4,1.59,4,4,0,0,1-2.16.57,4.76,4.76,0,0,1-2.07-.46,3.73,3.73,0,0,1-1.5-1.27,3.11,3.11,0,0,1-.55-1.8,2.89,2.89,0,0,1,.67-2.05A4.08,4.08,0,0,1,238,25a21.47,21.47,0,0,1,4.27-.32h.53v-.8a3.1,3.1,0,0,0-.6-2.12,2.52,2.52,0,0,0-2-.66,7.53,7.53,0,0,0-4,1.25l-.64-1.42a7.54,7.54,0,0,1,2.19-1,8.29,8.29,0,0,1,2.49-.4A4.41,4.41,0,0,1,243.55,20.64Zm-1.73,8.5a3.49,3.49,0,0,0,.93-2.51v-.7h-.44a21.41,21.41,0,0,0-3.21.18,3.09,3.09,0,0,0-1.57.6,1.56,1.56,0,0,0-.47,1.24,2,2,0,0,0,.68,1.55,2.48,2.48,0,0,0,1.72.61A3.09,3.09,0,0,0,241.82,29.14Z"/><path d="M258.61,31.48h-2.52l-5.95-5.59v5.59h-1.95V14.56h1.95V25.09l5.45-5.28h2.47l-5.81,5.6Z"/><path d="M270.35,14.56V31.48h-2V29.34a3.82,3.82,0,0,1-1.54,1.71,4.64,4.64,0,0,1-2.39.6,4.84,4.84,0,0,1-2.71-.77,5,5,0,0,1-1.83-2.15,7.49,7.49,0,0,1-.65-3.2,7.35,7.35,0,0,1,.65-3.17,4.85,4.85,0,0,1,1.83-2.11,4.9,4.9,0,0,1,2.71-.75,4.64,4.64,0,0,1,2.39.6,3.82,3.82,0,0,1,1.54,1.71V14.56Zm-2.87,14.31a5.15,5.15,0,0,0,.92-3.3,5.09,5.09,0,0,0-.92-3.28,3.18,3.18,0,0,0-2.63-1.16,3.24,3.24,0,0,0-2.65,1.16,5,5,0,0,0-.95,3.24,5.21,5.21,0,0,0,.95,3.32A3.21,3.21,0,0,0,264.85,30,3.16,3.16,0,0,0,267.48,28.87Z"/><path d="M275.88,30.9a5,5,0,0,1-1.95-2.12,7.22,7.22,0,0,1-.68-3.21,7.21,7.21,0,0,1,.68-3.2,5,5,0,0,1,1.95-2.12,5.58,5.58,0,0,1,2.91-.75,5.65,5.65,0,0,1,2.93.75,4.91,4.91,0,0,1,2,2.12,7.21,7.21,0,0,1,.68,3.2,7.22,7.22,0,0,1-.68,3.21,4.91,4.91,0,0,1-2,2.12,5.65,5.65,0,0,1-2.93.75A5.58,5.58,0,0,1,275.88,30.9Zm5.57-2a5.22,5.22,0,0,0,.92-3.33,5.13,5.13,0,0,0-.94-3.3,3.58,3.58,0,0,0-5.28,0,5.18,5.18,0,0,0-.93,3.3,5.25,5.25,0,0,0,.92,3.32,3.65,3.65,0,0,0,5.31,0Z"/><path d="M304.16,24.13v7.35h-1.94V24.23a4,4,0,0,0-.56-2.35,2.14,2.14,0,0,0-1.82-.75,2.86,2.86,0,0,0-2.3,1,4,4,0,0,0-.84,2.69v6.67h-1.95V24.23a3.86,3.86,0,0,0-.57-2.36,2.19,2.19,0,0,0-1.83-.74,2.86,2.86,0,0,0-2.3,1,4,4,0,0,0-.84,2.69v6.67h-1.94V19.79h1.92v1.85a3.82,3.82,0,0,1,1.46-1.59,4.25,4.25,0,0,1,2.16-.55,3.45,3.45,0,0,1,3.58,2.31,3.76,3.76,0,0,1,1.53-1.7,4.6,4.6,0,0,1,2.35-.61C302.87,19.5,304.16,21.05,304.16,24.13Z"/><path d="M317.51,25.93H309A4.62,4.62,0,0,0,310.07,29a3.79,3.79,0,0,0,2.85,1,5.8,5.8,0,0,0,3.75-1.39l.64,1.42a5.42,5.42,0,0,1-2,1.14,7.38,7.38,0,0,1-2.45.42A5.75,5.75,0,0,1,308.59,30,6.06,6.06,0,0,1,307,25.6a7,7,0,0,1,.69-3.18,5.24,5.24,0,0,1,2-2.15,5.43,5.43,0,0,1,2.87-.77A4.57,4.57,0,0,1,316.19,21a6.16,6.16,0,0,1,1.32,4.18Zm-7.41-4A4.43,4.43,0,0,0,309,24.69h6.79a4.15,4.15,0,0,0-.89-2.73,3,3,0,0,0-2.35-.95A3.31,3.31,0,0,0,310.1,22Z"/><path d="M330.44,24.13v7.35H328.5V24.25a3.57,3.57,0,0,0-.64-2.37,2.51,2.51,0,0,0-2-.75,3.4,3.4,0,0,0-2.56,1,3.65,3.65,0,0,0-1,2.66v6.7h-1.95V19.79h1.92v1.92a3.92,3.92,0,0,1,1.61-1.64,4.78,4.78,0,0,1,2.35-.57C329,19.5,330.44,21.05,330.44,24.13Z"/></svg>