<svg id="Layer_1" data-name="Layer 1" xmlns="http://www.w3.org/2000/svg" viewBox="0 0 348.09 82.29"><defs><style>.cls-1{fill:#fff;}</style></defs><title>Artboard 2</title><polygon points="348.08 62.7 14.37 82.29 0 3.92 302.37 0 348.08 62.7"/><path class="cls-1" d="M69.89,11.83H78.4V61.38H68.77V32L57.38,53.23h-7L39,32.28v29.1H29.34V11.83H38l16,30.29Z"/><path class="cls-1" d="M114.28,29.68Q118,33.34,118,41V61.38h-10V56.25a8.42,8.42,0,0,1-3.52,4.18,10.76,10.76,0,0,1-5.76,1.51,14.27,14.27,0,0,1-6.36-1.4,11.13,11.13,0,0,1-4.5-3.94A10.08,10.08,0,0,1,86.13,51a8.71,8.71,0,0,1,1.93-6,11.59,11.59,0,0,1,6.22-3.16,55.4,55.4,0,0,1,11.74-1h1.83V39.59c0-2.06-.45-3.51-1.34-4.36S104.08,34,101.87,34a20,20,0,0,0-5.62.91,27.7,27.7,0,0,0-5.9,2.53l-2.82-7.1A32.79,32.79,0,0,1,102.86,26Q110.59,26,114.28,29.68ZM106,52.56a7.62,7.62,0,0,0,1.9-5.38V46h-1.2q-5.69,0-8,.91a3.3,3.3,0,0,0-2.29,3.3,4.24,4.24,0,0,0,1.3,3.17A4.52,4.52,0,0,0,101,54.63,6.46,6.46,0,0,0,106,52.56Z"/><path class="cls-1" d="M148.4,53.93l-.56,7.73a29.45,29.45,0,0,1-4.08.28q-7.86,0-11.49-3.44T128.65,48V34.81h-6.53V26.87h6.53V16.75h10.62V26.87h8.64v7.94h-8.64V48q0,6.18,5.76,6.18A28.34,28.34,0,0,0,148.4,53.93Z"/><path class="cls-1" d="M186.36,26.87V61.38H176V56.46a11,11,0,0,1-4.26,4.08,12.46,12.46,0,0,1-5.94,1.4q-6.53,0-9.73-3.62t-3.2-10.93V26.87h10.62V47.6a6.74,6.74,0,0,0,1.3,4.57,5,5,0,0,0,4,1.48,6.48,6.48,0,0,0,5-2.11A7.9,7.9,0,0,0,175.75,46V26.87Z"/><path class="cls-1" d="M219.18,34.74l-6,.63q-4.43.43-6.26,2.5a8,8,0,0,0-1.83,5.52v18H194.51V26.87H204.7V32.7q2.61-6,10.76-6.53l3.09-.21Z"/><path class="cls-1" d="M222.34,10.28h11.39v9.91H222.34Zm.36,51.1V26.87h10.61V61.38Z"/><path class="cls-1" d="M272.32,29.65q3,3.62,3,10.93v20.8H264.73V41.07c0-2.35-.44-4-1.3-5.13a4.88,4.88,0,0,0-4-1.62,7,7,0,0,0-5.31,2.11,7.79,7.79,0,0,0-2,5.62V61.38H241.46V26.87h10.33v4.92a12.17,12.17,0,0,1,4.75-4.29A14.37,14.37,0,0,1,263.11,26Q269.29,26,272.32,29.65Z"/><path class="cls-1" d="M290.24,59.73a15.48,15.48,0,0,1-6.39-6.26A19.15,19.15,0,0,1,281.6,44a19.12,19.12,0,0,1,2.25-9.52,15.29,15.29,0,0,1,6.39-6.23,22.45,22.45,0,0,1,19.26,0,15.38,15.38,0,0,1,6.4,6.23A19.23,19.23,0,0,1,318.15,44a19.26,19.26,0,0,1-2.25,9.52,15.57,15.57,0,0,1-6.4,6.26,22.09,22.09,0,0,1-19.26,0ZM307.6,44q0-5-2-7.45A7,7,0,0,0,299.87,34q-7.72,0-7.73,9.91t7.73,9.91Q307.61,53.86,307.6,44Z"/></svg>