<svg id="Layer_1" data-name="Layer 1" xmlns="http://www.w3.org/2000/svg" viewBox="0 0 296.61 48.71"><title>Artboard 20</title><path d="M2.81,2,284.86,5.82l9.2,37.09L18,46.69,2.81,2M0,0,16.56,48.71l280.05-3.84-10.18-41L0,0Z"/><path d="M57.29,26.32l-1.86-5.7a.83.83,0,0,0,0-.15L51.67,9a1.48,1.48,0,0,0-1.42-1,1.44,1.44,0,0,0-1.39,1L45.31,19.94H34.1L30.55,9a1.45,1.45,0,0,0-1.39-1h0a1.48,1.48,0,0,0-1.41,1L24,20.49s0,0,0,0l-1.89,5.81a2.13,2.13,0,0,0,.77,2.37L39.21,40.56a.83.83,0,0,0,1,0L56.52,28.7a2.11,2.11,0,0,0,.77-2.38m-24.4-4.71,4.55,14-10.92-14M42,35.62,46.33,22.2l.19-.59H52.9L43,34.27m7.25-24.18,3.19,9.85h-6.4m-2.3,1.67-3.17,9.75L39.7,37.17,34.65,21.61M29.14,10.09l3.21,9.85H26m-2.08,7.41a.46.46,0,0,1-.17-.51l1.41-4.31L35.4,35.72m20.14-8.37L44,35.72l0,0L54.3,22.53l1.4,4.31a.44.44,0,0,1-.16.5"/><path d="M81.13,19.79v10.9a5.32,5.32,0,0,1-1.34,3.94,5.45,5.45,0,0,1-4,1.34,8.3,8.3,0,0,1-5.16-1.59l.65-1.44a9.93,9.93,0,0,0,2.21,1.11,7.56,7.56,0,0,0,2.3.33,3.39,3.39,0,0,0,2.55-.9,3.67,3.67,0,0,0,.86-2.63V28.79a3.63,3.63,0,0,1-1.55,1.73,4.82,4.82,0,0,1-2.46.6,5.14,5.14,0,0,1-2.72-.72,4.89,4.89,0,0,1-1.85-2A6.74,6.74,0,0,1,70,25.31a6.74,6.74,0,0,1,.66-3,4.89,4.89,0,0,1,1.85-2,5.14,5.14,0,0,1,2.72-.72,4.76,4.76,0,0,1,2.43.6,3.86,3.86,0,0,1,1.56,1.71v-2Zm-2.9,8.6a4.56,4.56,0,0,0,1-3.08,4.61,4.61,0,0,0-1-3.06,3.31,3.31,0,0,0-2.65-1.12,3.38,3.38,0,0,0-2.68,1.12,4.51,4.51,0,0,0-1,3.06,4.51,4.51,0,0,0,1,3.08,3.35,3.35,0,0,0,2.68,1.12A3.28,3.28,0,0,0,78.23,28.39Z"/><path d="M84.54,14.73h2.35v2.18H84.54Zm.19,16.75V19.79h2V31.48Z"/><path d="M96.49,30l-.09,1.53a7.47,7.47,0,0,1-1.2.1A4.21,4.21,0,0,1,92,30.54,4.19,4.19,0,0,1,91,27.47V21.33H88.67V19.79H91V16.24h1.94v3.55H96.2v1.54H92.89v6q0,2.76,2.55,2.76A9.26,9.26,0,0,0,96.49,30Z"/><path d="M98.46,31.48V14.56h1.94V31.48Z"/><path d="M112.1,20.64a4.85,4.85,0,0,1,1.1,3.47v7.37h-1.9v-2a3.38,3.38,0,0,1-1.39,1.59,4.1,4.1,0,0,1-2.16.57,4.8,4.8,0,0,1-2.08-.46,3.73,3.73,0,0,1-1.5-1.27,3.11,3.11,0,0,1-.55-1.8,2.91,2.91,0,0,1,.67-2.05A4.12,4.12,0,0,1,106.5,25a21.54,21.54,0,0,1,4.27-.32h.53v-.8a3.1,3.1,0,0,0-.6-2.12,2.51,2.51,0,0,0-1.94-.66,7.5,7.5,0,0,0-4,1.25l-.65-1.42a7.61,7.61,0,0,1,2.2-1,8.18,8.18,0,0,1,2.48-.4A4.38,4.38,0,0,1,112.1,20.64Zm-1.72,8.5a3.51,3.51,0,0,0,.92-2.51v-.7h-.43a21.29,21.29,0,0,0-3.22.19,3,3,0,0,0-1.57.59,1.61,1.61,0,0,0-.47,1.24,2,2,0,0,0,.69,1.55,2.44,2.44,0,0,0,1.71.61A3.13,3.13,0,0,0,110.38,29.14Z"/><path d="M125.34,20.25a4.9,4.9,0,0,1,1.82,2.11,7.21,7.21,0,0,1,.65,3.17,7.35,7.35,0,0,1-.65,3.2,5.07,5.07,0,0,1-1.82,2.15,4.86,4.86,0,0,1-2.71.77,4.64,4.64,0,0,1-2.39-.6,3.84,3.84,0,0,1-1.55-1.71v2.14h-1.94V14.56h1.94v7.25a3.84,3.84,0,0,1,1.55-1.71,4.64,4.64,0,0,1,2.39-.6A4.93,4.93,0,0,1,125.34,20.25Zm-.46,8.6a5.21,5.21,0,0,0,.94-3.32,5,5,0,0,0-.94-3.24,3.2,3.2,0,0,0-2.64-1.16,3.16,3.16,0,0,0-2.62,1.16,5.12,5.12,0,0,0-.93,3.29,5.14,5.14,0,0,0,.93,3.29,3.52,3.52,0,0,0,5.26,0Z"/><path d="M130,29h2.45v2.45H130Z"/><path d="M137.34,30.9a4.92,4.92,0,0,1-2-2.1,7,7,0,0,1-.68-3.18,7,7,0,0,1,.71-3.2,5.17,5.17,0,0,1,2-2.15,5.78,5.78,0,0,1,3-.77,6.64,6.64,0,0,1,2.31.42A5.12,5.12,0,0,1,144.54,21l-.65,1.44a5.28,5.28,0,0,0-3.36-1.35,3.53,3.53,0,0,0-2.81,1.18,5,5,0,0,0-1,3.31,4.83,4.83,0,0,0,1,3.27A3.57,3.57,0,0,0,140.53,30a5.28,5.28,0,0,0,3.36-1.35l.65,1.44a5.31,5.31,0,0,1-1.87,1.11,6.89,6.89,0,0,1-2.33.41A5.81,5.81,0,0,1,137.34,30.9Z"/><path d="M148.82,30.9a4.93,4.93,0,0,1-1.94-2.12,7.08,7.08,0,0,1-.69-3.2,7.09,7.09,0,0,1,.69-3.21,4.93,4.93,0,0,1,1.94-2.12,5.62,5.62,0,0,1,2.92-.75,5.68,5.68,0,0,1,2.93.75,4.83,4.83,0,0,1,2,2.12,7.09,7.09,0,0,1,.69,3.21,7.08,7.08,0,0,1-.69,3.2,4.83,4.83,0,0,1-2,2.12,5.68,5.68,0,0,1-2.93.75A5.62,5.62,0,0,1,148.82,30.9Zm5.57-2a5.15,5.15,0,0,0,.92-3.32,5.2,5.2,0,0,0-.93-3.31,3.58,3.58,0,0,0-5.28,0,5.2,5.2,0,0,0-.94,3.31,5.16,5.16,0,0,0,.93,3.31,3.64,3.64,0,0,0,5.3,0Z"/><path d="M177.11,24.13v7.35h-2V24.23a3.87,3.87,0,0,0-.56-2.35,2.12,2.12,0,0,0-1.81-.75,2.87,2.87,0,0,0-2.31,1,4,4,0,0,0-.84,2.69v6.67H167.7V24.23a3.79,3.79,0,0,0-.58-2.36,2.17,2.17,0,0,0-1.82-.74,2.85,2.85,0,0,0-2.3,1,4,4,0,0,0-.84,2.69v6.67h-1.95V19.79h1.92v1.85a3.69,3.69,0,0,1,1.47-1.58,4.14,4.14,0,0,1,2.16-.56,3.44,3.44,0,0,1,3.57,2.31,3.76,3.76,0,0,1,1.54-1.69,4.51,4.51,0,0,1,2.35-.62C175.81,19.5,177.11,21.05,177.11,24.13Z"/><path d="M180,33l-1.61-.53,6.12-19.1,1.61.52Z"/><path d="M187.74,31.48V14.56h2V29.8h8.47v1.68Z"/><path d="M202.35,31.36a4.48,4.48,0,0,1-1,3.24A4.83,4.83,0,0,1,198,35.82l-1.08.07-.14-1.51,1.08-.07a2.4,2.4,0,0,0,2.52-2.69V19.79h1.94Zm-2.13-16.63h2.35v2.18h-2.35Z"/><path d="M215.82,19.79V31.48h-1.9v-2a3.8,3.8,0,0,1-1.54,1.61,4.68,4.68,0,0,1-2.25.55A4,4,0,0,1,207,30.48,4.92,4.92,0,0,1,205.93,27V19.79h1.95V27a3.46,3.46,0,0,0,.62,2.29,2.45,2.45,0,0,0,2,.74,3.26,3.26,0,0,0,2.47-1,3.7,3.7,0,0,0,.94-2.63v-6.6Z"/><path d="M228,20.25a4.9,4.9,0,0,1,1.82,2.11,7.35,7.35,0,0,1,.65,3.17,7.49,7.49,0,0,1-.65,3.2A5.07,5.07,0,0,1,228,30.88a4.89,4.89,0,0,1-2.72.77,4.6,4.6,0,0,1-2.38-.6,3.84,3.84,0,0,1-1.55-1.71v2.14h-1.95V14.56h1.95v7.25a3.84,3.84,0,0,1,1.55-1.71,4.6,4.6,0,0,1,2.38-.6A5,5,0,0,1,228,20.25Zm-.46,8.6a5.27,5.27,0,0,0,.94-3.32,5,5,0,0,0-.94-3.24,3.57,3.57,0,0,0-5.27,0,5.18,5.18,0,0,0-.92,3.29,5.2,5.2,0,0,0,.92,3.29,3.53,3.53,0,0,0,5.27,0Z"/><path d="M243.2,25.93h-8.54a4.62,4.62,0,0,0,1.1,3.09,3.83,3.83,0,0,0,2.86,1,5.75,5.75,0,0,0,3.74-1.39l.65,1.42a5.47,5.47,0,0,1-2,1.14,7.32,7.32,0,0,1-2.44.42A5.74,5.74,0,0,1,234.29,30a6.07,6.07,0,0,1-1.58-4.44,7,7,0,0,1,.7-3.18,5.17,5.17,0,0,1,2-2.15,5.4,5.4,0,0,1,2.86-.77A4.56,4.56,0,0,1,241.88,21a6.16,6.16,0,0,1,1.32,4.18ZM235.8,22a4.34,4.34,0,0,0-1.09,2.71h6.79a4.17,4.17,0,0,0-.89-2.73,3,3,0,0,0-2.35-.94A3.24,3.24,0,0,0,235.8,22Z"/><path d="M245.34,30.13l.65-1.44a6,6,0,0,0,1.91,1.07,6.72,6.72,0,0,0,2.19.33,3.58,3.58,0,0,0,2-.45,1.42,1.42,0,0,0,.69-1.28,1.44,1.44,0,0,0-.46-1.11,3.46,3.46,0,0,0-1.51-.64l-2-.46A4.48,4.48,0,0,1,246.54,25a2.79,2.79,0,0,1-.79-2A3.06,3.06,0,0,1,247,20.46a5.16,5.16,0,0,1,3.26-1,6.67,6.67,0,0,1,2.33.4A4.75,4.75,0,0,1,254.41,21l-.65,1.41a5.31,5.31,0,0,0-3.53-1.36,3.26,3.26,0,0,0-1.9.47,1.48,1.48,0,0,0-.69,1.3,1.51,1.51,0,0,0,.42,1.12,2.88,2.88,0,0,0,1.36.64l2,.48a5,5,0,0,1,2.43,1.16,2.74,2.74,0,0,1,.79,2,2.86,2.86,0,0,1-1.24,2.44,5.55,5.55,0,0,1-3.37.92A6.84,6.84,0,0,1,245.34,30.13Z"/><path d="M267.37,25.93h-8.54a4.62,4.62,0,0,0,1.1,3.09,3.8,3.8,0,0,0,2.86,1,5.75,5.75,0,0,0,3.74-1.39l.65,1.42a5.47,5.47,0,0,1-2,1.14,7.38,7.38,0,0,1-2.45.42A5.77,5.77,0,0,1,258.45,30a6.11,6.11,0,0,1-1.57-4.44,6.89,6.89,0,0,1,.7-3.18,5.15,5.15,0,0,1,1.95-2.15,5.43,5.43,0,0,1,2.87-.77A4.57,4.57,0,0,1,266.05,21a6.16,6.16,0,0,1,1.32,4.18ZM260,22a4.4,4.4,0,0,0-1.1,2.71h6.8a4.22,4.22,0,0,0-.89-2.73,3,3,0,0,0-2.35-.94A3.24,3.24,0,0,0,260,22Z"/><path d="M280.64,31.48h-2.52l-5.95-5.59v5.59h-1.94V14.56h1.94V25.1l5.45-5.29h2.47l-5.81,5.6Z"/></svg>